<svg id="Layer_1" data-name="Layer 1" xmlns="http://www.w3.org/2000/svg" viewBox="0 0 256 256"><defs><style>.cls-1{fill:#ccc;}</style></defs><title>Default Logo</title><path class="cls-1" d="M128,0,13.37,51.2C13.37,166.61,71.45,233,128,256h0c56.55-23,114.63-89.39,114.63-204.8ZM140.71,192.9H116.08V168.27h24.63Zm28.79-77.48q-4.6,7.28-19.68,19.81-7.8,6.49-9.69,10.43t-1.71,14.11H116.08Q116,155,116,153.9,116,143,119.59,136T134,120.24q10.78-8.76,12.88-11.48a15.35,15.35,0,0,0,3.24-9.47A16,16,0,0,0,144.35,87q-5.74-5.13-15.47-5.13-9.38,0-15.69,5.35t-8.68,16.3L81.9,100.7q1-15.69,13.37-26.65t32.56-11q21.21,0,33.74,11.09T174.1,100A28.38,28.38,0,0,1,169.5,115.42Z"/></svg>